<svg width="96" height="96" viewBox="0 0 96 96" xmlns="http://www.w3.org/2000/svg" role="img" aria-label="JHB">
  <rect width="96" height="96" fill="#0A2540"/>
  <path transform="translate(8.1400 62.2000) scale(0.04 -0.04)" fill="#ffffff" d="M314.59967041015625 -16.0Q226.20001220703125 -16.0 166.00015258789062 19.899932861328125Q105.80029296875 55.79986572265625 74.90032958984375 118.19976806640625Q44.0003662109375 180.59967041015625 43.0003662109375 259.99957275390625L217.3990478515625 267.59954833984375Q219.19903564453125 193.59942626953125 244.39920043945312 159.999267578125Q269.599365234375 126.39910888671875 314.59967041015625 126.39910888671875Q359.4000244140625 126.39910888671875 384.7001953125 157.79934692382812Q410.0003662109375 189.1995849609375 410.0003662109375 257.599853515625V710.0H583.9990234375V257.599853515625Q583.9990234375 174.19989013671875 549.9991149902344 112.69992065429688Q515.9992065429688 51.199951171875 455.4993591308594 17.5999755859375Q394.99951171875 -16.0 314.59967041015625 -16.0Z M667.5003662109375 0.0V710.0H841.4990234375V376.1998291015625L766.2994995117188 428.59954833984375H1156.9003295898438L1081.7008056640625 376.1998291015625V710.0H1255.699462890625V0.0H1081.7008056640625V337.8001708984375L1156.9003295898438 286.200439453125H766.2994995117188L841.4990234375 337.8001708984375V0.0Z M1354.0003662109375 0.0V710.0H1641.19970703125Q1775.1995849609375 710.0 1847.3994445800781 663.6000061035156Q1919.5993041992188 617.2000122070312 1919.5993041992188 516.6000366210938Q1919.5993041992188 473.0 1902.3992614746094 441.199951171875Q1885.19921875 409.39990234375 1851.399169921875 390.69989013671875Q1817.59912109375 371.9998779296875 1768.9990844726562 367.199951171875L1768.799072265625 366.800048828125Q1858.1990966796875 359.60015869140625 1903.8992004394531 315.10009765625Q1949.5993041992188 270.60003662109375 1949.5993041992188 195.79998779296875Q1949.5993041992188 96.4000244140625 1877.7994384765625 48.20001220703125Q1805.9995727539062 0.0 1673.1998291015625 0.0ZM1527.9990234375 136.7991943359375H1662.7999877929688Q1711.8003540039062 136.7991943359375 1743.3004760742188 156.79934692382812Q1774.8005981445312 176.79949951171875 1774.8005981445312 218.39971923828125Q1774.8005981445312 259.99993896484375 1743.7004699707031 280.7001037597656Q1712.600341796875 301.4002685546875 1662.7999877929688 301.4002685546875H1527.9990234375ZM1527.9990234375 420.5997314453125H1634.7998046875Q1684.000244140625 420.5997314453125 1714.4004211425781 439.69989013671875Q1744.8005981445312 458.800048828125 1744.8005981445312 496.60028076171875Q1744.8005981445312 536.6005249023438 1715.1004333496094 554.9006652832031Q1685.4002685546875 573.2008056640625 1634.7998046875 573.2008056640625H1527.9990234375Z"/>
</svg>
