<svg width="96" height="96" viewBox="0 0 96 96" xmlns="http://www.w3.org/2000/svg" role="img" aria-label="JHB Software">
  <defs>
    <clipPath id="jhbMarkOuter">
      <rect x="0" y="0" width="96" height="96" rx="6" />
    </clipPath>
  </defs>
  <g clip-path="url(#jhbMarkOuter)">
    <rect x="0"  y="0"  width="24" height="24" fill="#FF5C00"/>
    <rect x="24" y="0"  width="24" height="24" fill="#14365C"/>
    <rect x="48" y="0"  width="24" height="24" fill="#0A2540"/>
    <rect x="72" y="0"  width="24" height="24" fill="#14365C"/>
    <rect x="0"  y="24" width="24" height="24" fill="#0A2540"/>
    <rect x="24" y="24" width="24" height="24" fill="#FF5C00"/>
    <rect x="48" y="24" width="24" height="24" fill="#14365C"/>
    <rect x="72" y="24" width="24" height="24" fill="#0A2540"/>
    <rect x="0"  y="48" width="24" height="24" fill="#14365C"/>
    <rect x="24" y="48" width="24" height="24" fill="#0A2540"/>
    <rect x="48" y="48" width="24" height="24" fill="#FF5C00"/>
    <rect x="72" y="48" width="24" height="24" fill="#14365C"/>
    <rect x="0"  y="72" width="24" height="24" fill="#0A2540"/>
    <rect x="24" y="72" width="24" height="24" fill="#14365C"/>
    <rect x="48" y="72" width="24" height="24" fill="#0A2540"/>
    <rect x="72" y="72" width="24" height="24" fill="#FF5C00"/>
  </g>
</svg>
