<svg width="96" height="96" viewBox="0 0 96 96" fill="none" xmlns="http://www.w3.org/2000/svg">
<path d="M0 18C0 8.05887 8.05887 0 18 0H24.7273V24.7273H0V18Z" fill="#193FAD"/>
<rect y="24.7273" width="24.7273" height="23.2727" fill="#214098"/>
<rect y="48" width="24.7273" height="24.7273" fill="#1D3782"/>
<path d="M0 72.7273H24.7273V96H18C8.05887 96 0 87.9411 0 78V72.7273Z" fill="#182E6D"/>
<rect x="24.7273" y="72.7273" width="23.2727" height="23.2727" fill="#1D3782"/>
<rect x="48" y="72.7273" width="24.7273" height="23.2727" fill="#214098"/>
<path d="M72.7273 72.7273H96V78C96 87.9411 87.9412 96 78 96H72.7273V72.7273Z" fill="#193FAD"/>
<rect x="72.7273" y="48" width="23.2727" height="24.7273" fill="#2047D7"/>
<rect x="72.7273" y="24.7273" width="23.2727" height="23.2727" fill="#2A54D9"/>
<rect x="48" y="24.7273" width="24.7273" height="23.2727" fill="#2047D7"/>
<rect x="24.7273" y="24.7273" width="23.2727" height="23.2727" fill="#193FAD"/>
<rect x="24.7273" y="48" width="23.2727" height="24.7273" fill="#214098"/>
<rect x="48" y="48" width="24.7273" height="24.7273" fill="#193FAD"/>
<rect x="24.7273" width="23.2727" height="24.7273" fill="#2047D7"/>
<rect x="48" width="24.7273" height="24.7273" fill="#2A54D9"/>
<path d="M72.7273 0H78C87.9412 0 96 8.05888 96 18V24.7273H72.7273V0Z" fill="#305CE9"/>
<path d="M63.4688 68.8951L63.4688 28.1678H73.6506C78.7706 28.1678 82.6106 29.1375 85.1706 31.0769C87.7693 33.0163 89.0687 35.5763 89.0687 38.7569C89.0687 40.8902 88.5451 42.7521 87.4978 44.3424C86.4505 45.8939 85.0154 47.0963 83.1924 47.9496C81.3693 48.803 79.2748 49.2296 76.9087 49.2296L78.0142 46.8442C80.5742 46.8442 82.8433 47.2708 84.8215 48.1242C86.7996 48.9387 88.3318 50.1605 89.4178 51.7896C90.5427 53.4187 91.1051 55.4163 91.1051 57.7824C91.1051 61.2733 89.7281 64.0078 86.9742 65.986C84.2202 67.9254 80.1669 68.8951 74.8142 68.8951H63.4688ZM63.4688 61.7969H74.116C76.5596 61.7969 78.4021 61.409 79.6433 60.6333C80.9233 59.8187 81.5633 58.5387 81.5633 56.7933C81.5633 55.0866 80.9233 53.826 79.6433 53.0115C78.4021 52.1581 76.5596 51.7315 74.116 51.7315H63.4688L63.4688 44.866H72.4869C74.7754 44.866 76.5209 44.4781 77.7233 43.7024C78.9645 42.8878 79.5851 41.666 79.5851 40.0369C79.5851 38.4466 78.9645 37.2636 77.7233 36.4878C76.5209 35.6733 74.7754 35.266 72.4869 35.266H63.4688L63.4688 61.7969Z" fill="white"/>
<path d="M51.6654 28.1678H61.0908V68.8951H51.6654V28.1678ZM52.3636 52.1969H34.1818V44.1678L52.3636 44.226V52.1969Z" fill="white"/>
<path d="M17.2298 69.5933C14.4758 69.5933 11.9352 69.089 9.60795 68.0806C7.61649 67.2176 5.53845 64.6154 5.53845 64.6154L10.1538 58.6154C11.5385 60 11.5385 60 12.7498 60.7496C13.991 61.4866 15.3292 61.8551 16.7643 61.8551C20.6043 61.8551 22.5243 59.6054 22.5243 55.106V35.7315H8.21158V28.1678H31.8916V54.5824C31.8916 59.6248 30.6504 63.3872 28.168 65.8696C25.6855 68.3521 22.0395 69.5933 17.2298 69.5933Z" fill="white"/>
</svg>
